<svg width="36" height="36" viewBox="0 0 36 36" fill="none" xmlns="http://www.w3.org/2000/svg">
<path d="M27.9 16.2C23.4225 16.2 19.8 19.8225 19.8 24.3C19.8 28.7775 23.4214 32.4 27.9 32.4C32.3786 32.4 36 28.7786 36 24.3C36 19.8214 32.3775 16.2 27.9 16.2ZM30.6 25.2H27.5484C27.2475 25.2 27 24.9525 27 24.6544V20.7C27 20.205 27.405 19.8 27.9 19.8C28.395 19.8 28.8 20.205 28.8 20.7V23.4H30.6C31.0971 23.4 31.5 23.8029 31.5 24.3C31.5 24.795 31.095 25.2 30.6 25.2ZM18.0056 23.4H11.7C11.205 23.4 10.8 22.995 10.8 22.5V19.8H0V27.9C0 29.34 1.26056 30.6 2.7 30.6H20.2612C18.8494 28.89 18 26.6906 18 24.3C18 23.9962 18.0281 23.6981 18.0056 23.4ZM27.9 14.4C28.2039 14.4 28.503 14.4186 28.8 14.4454V11.7C28.8 10.26 27.54 9 26.1 9H21.6V6.3C21.6 4.86056 20.34 3.6 18.9 3.6H9.9C8.46 3.6 7.2 4.86056 7.2 6.3V9H2.7C1.26056 9 0 10.26 0 11.7V18H20.2612C22.0781 15.8006 24.8231 14.4 27.9 14.4ZM18.9 9H9.9V6.3H18.9V9Z" fill="#3E3E3E"/>
</svg>
