<svg width="36" height="36" viewBox="0 0 36 36" fill="none" xmlns="http://www.w3.org/2000/svg">
<path d="M31.5 2.25H4.49297C3.25547 2.25 2.25 3.26953 2.25 4.52109V31.4789C2.25 32.7305 3.25547 33.75 4.49297 33.75H31.5C32.7375 33.75 33.75 32.7305 33.75 31.4789V4.52109C33.75 3.26953 32.7375 2.25 31.5 2.25ZM11.7703 29.25H7.10156V14.2172H11.7773V29.25H11.7703ZM9.43594 12.1641C7.93828 12.1641 6.72891 10.9477 6.72891 9.45703C6.72891 7.96641 7.93828 6.75 9.43594 6.75C10.9266 6.75 12.143 7.96641 12.143 9.45703C12.143 10.9547 10.9336 12.1641 9.43594 12.1641ZM29.2711 29.25H24.6023V21.9375C24.6023 20.1938 24.5672 17.9508 22.1766 17.9508C19.7437 17.9508 19.3711 19.8492 19.3711 21.8109V29.25H14.7023V14.2172H19.1812V16.2703H19.2445C19.8703 15.0891 21.3961 13.8445 23.6672 13.8445C28.3922 13.8445 29.2711 16.9594 29.2711 21.0094V29.25Z" fill="#3E3E3E"/>
</svg>
