<svg width="36" height="36" viewBox="0 0 36 36" fill="none" xmlns="http://www.w3.org/2000/svg">
<g clip-path="url(#clip0_62_202)">
<path d="M35.9718 2.59172L31.4718 31.7784C31.3663 32.4629 30.9532 33.0595 30.3489 33.3991C30.0083 33.5903 29.6268 33.6872 29.2464 33.6872C28.9519 33.6872 28.6614 33.6299 28.3822 33.5134L19.7619 29.9204L16.1858 35.2846C15.9116 35.7539 15.4546 36 14.9624 36C14.1538 36 13.4999 35.3461 13.4999 34.5375V27.7748C13.4999 27.2746 13.6667 26.7884 13.9739 26.3939L29.2499 6.75L8.59911 25.3336L1.38434 22.3242C0.593188 21.9937 0.0570197 21.2484 0.00428532 20.3273C-0.0484491 19.4062 0.388824 18.6595 1.1335 18.2341L32.6335 0.29742C33.3851 -0.132119 34.3126 -0.0926031 35.0241 0.39628C35.7357 0.885162 36.1054 1.73812 35.9718 2.59172Z" fill="#3E3E3E"/>
</g>
<defs>
<clipPath id="clip0_62_202">
<rect width="36" height="36" fill="white"/>
</clipPath>
</defs>
</svg>
