<svg width="36" height="36" viewBox="0 0 36 36" fill="none" xmlns="http://www.w3.org/2000/svg">
<path d="M16.3336 35.1703C12.6633 30.6563 4.5 19.7156 4.5 13.5703C4.5 6.11438 10.5441 0.0703125 18 0.0703125C25.4531 0.0703125 31.5 6.11438 31.5 13.5703C31.5 19.7156 23.2734 30.6563 19.6664 35.1703C18.8016 36.2461 17.1984 36.2461 16.3336 35.1703ZM18 18.0703C20.482 18.0703 22.5 16.0523 22.5 13.5703C22.5 11.0883 20.482 9.07031 18 9.07031C15.518 9.07031 13.5 11.0883 13.5 13.5703C13.5 16.0523 15.518 18.0703 18 18.0703Z" fill="#3E3E3E"/>
</svg>
