<svg width="36" height="36" viewBox="0 0 36 36" fill="none" xmlns="http://www.w3.org/2000/svg">
<path d="M32.2995 10.6675C32.3223 10.9873 32.3223 11.3072 32.3223 11.6269C32.3223 21.3807 24.8985 32.6193 11.3299 32.6193C7.14973 32.6193 3.26651 31.4086 0 29.3072C0.59393 29.3757 1.16494 29.3985 1.78172 29.3985C5.2309 29.3985 8.40607 28.2336 10.9416 26.2463C7.69795 26.1777 4.97967 24.0533 4.04311 21.1295C4.5 21.198 4.95682 21.2437 5.43656 21.2437C6.09898 21.2437 6.76146 21.1523 7.37817 20.9924C3.99748 20.3071 1.46187 17.3376 1.46187 13.7513V13.66C2.44406 14.2082 3.58629 14.5508 4.79686 14.5965C2.80955 13.2716 1.50757 11.0102 1.50757 8.45178C1.50757 7.08124 1.87298 5.8249 2.51262 4.72845C6.14461 9.2056 11.604 12.1294 17.7258 12.4493C17.6116 11.901 17.543 11.33 17.543 10.7589C17.543 6.69291 20.8324 3.38077 24.9212 3.38077C27.0456 3.38077 28.9643 4.27163 30.3121 5.71071C31.9795 5.39093 33.5785 4.77415 34.9948 3.92899C34.4465 5.64223 33.2816 7.08131 31.7512 7.99496C33.2359 7.83513 34.675 7.42388 35.9999 6.85287C34.995 8.31474 33.7385 9.61671 32.2995 10.6675Z" fill="#3E3E3E"/>
</svg>
