<svg width="36" height="36" viewBox="0 0 36 36" fill="none" xmlns="http://www.w3.org/2000/svg">
<path d="M27 7.81172C28.5532 7.81172 29.8125 6.55453 29.8125 5.00133C29.8125 3.44812 27 0 27 0C27 0 24.1875 3.5093 24.1875 5.0625C24.1875 6.6157 25.4461 7.81172 27 7.81172ZM18 7.81172C19.5532 7.81172 20.8125 6.55453 20.8125 5.00133C20.8125 3.44812 18 0 18 0C18 0 15.1875 3.5093 15.1875 5.0625C15.1875 6.6157 16.4461 7.81172 18 7.81172ZM29.1867 15.6867L29.25 11.25C29.25 10.6287 28.7463 10.125 28.125 10.125H25.875C25.2563 10.125 24.75 10.6313 24.75 11.25V15.75H20.25V11.25C20.25 10.6287 19.7463 10.125 19.125 10.125H16.875C16.2563 10.125 15.75 10.6313 15.75 11.25V15.75H11.25V11.25C11.25 10.6287 10.7463 10.125 10.125 10.125H7.875C7.25344 10.125 6.75 10.6313 6.75 11.25V15.7479C4.26445 15.7479 2.25 17.7623 2.25 20.1846V25.0151C2.94005 25.4441 3.75398 25.8117 4.5 25.8117C5.95125 25.8117 7.66758 24.4245 8.20547 23.8901C8.64492 23.4528 9.35437 23.4528 9.79383 23.8901C10.2727 24.4898 12.0516 25.8117 13.5 25.8117C14.9484 25.8117 16.6676 24.4245 17.2055 23.8901C17.6449 23.4528 18.3544 23.4528 18.7938 23.8901C19.2727 24.4898 21.0516 25.8117 22.5 25.8117C23.9484 25.8117 25.6676 24.4245 26.2055 23.8901C26.6449 23.4528 27.3544 23.4528 27.7938 23.8901C28.2727 24.4898 30.0516 25.8117 31.5 25.8117C32.246 25.8117 33.0602 25.4442 33.75 25.0151V20.1867C33.75 17.7609 31.732 15.6867 29.1867 15.6867ZM27 26.2477C26.0332 27.0176 24.326 28.1222 22.5 28.1222C20.674 28.1222 18.9668 27.0183 18 26.2477C17.0332 27.0176 15.326 28.1222 13.5 28.1222C11.674 28.1222 9.9668 27.0183 9 26.2477C8.0332 27.0176 6.32602 28.1222 4.5 28.1222C3.70758 28.1222 2.9468 27.9027 2.25 27.6035V33.7474C2.25 34.9945 3.25758 36 4.5 36H31.5C32.7424 36 33.75 34.9924 33.75 33.75V27.6061C33.0532 27.9053 32.2924 28.1248 31.5 28.1248C29.6719 28.0617 27.9703 27.0211 27 26.2477ZM9 7.81172C10.5532 7.81172 11.8125 6.55453 11.8125 5.00133C11.8125 3.44812 9 0 9 0C9 0 6.1875 3.5093 6.1875 5.0625C6.1875 6.6157 7.4468 7.81172 9 7.81172Z" fill="#3E3E3E"/>
</svg>
