<svg width="36" height="36" viewBox="0 0 36 36" fill="none" xmlns="http://www.w3.org/2000/svg">
<path d="M18.0069 9.91407C13.5351 9.91407 9.92803 13.5211 9.92803 17.993C9.92803 22.4648 13.5351 26.0719 18.0069 26.0719C22.4788 26.0719 26.0858 22.4648 26.0858 17.993C26.0858 13.5211 22.4788 9.91407 18.0069 9.91407ZM18.0069 23.2453C15.1171 23.2453 12.7546 20.8899 12.7546 17.993C12.7546 15.0961 15.1101 12.7406 18.0069 12.7406C20.9038 12.7406 23.2593 15.0961 23.2593 17.993C23.2593 20.8899 20.8968 23.2453 18.0069 23.2453ZM28.3007 9.5836C28.3007 10.6313 27.4569 11.468 26.4163 11.468C25.3687 11.468 24.5319 10.6242 24.5319 9.5836C24.5319 8.54297 25.3757 7.69922 26.4163 7.69922C27.4569 7.69922 28.3007 8.54297 28.3007 9.5836ZM33.6515 11.4961C33.5319 8.97188 32.9554 6.73594 31.1062 4.89376C29.264 3.05157 27.028 2.47501 24.5038 2.34844C21.9022 2.20079 14.1046 2.20079 11.503 2.34844C8.98584 2.46797 6.7499 3.04454 4.90068 4.88672C3.05147 6.72891 2.48193 8.96485 2.35537 11.4891C2.20771 14.0906 2.20771 21.8883 2.35537 24.4898C2.4749 27.0141 3.05147 29.25 4.90068 31.0922C6.7499 32.9344 8.97881 33.5109 11.503 33.6375C14.1046 33.7852 21.9022 33.7852 24.5038 33.6375C27.028 33.518 29.264 32.9414 31.1062 31.0922C32.9483 29.25 33.5249 27.0141 33.6515 24.4898C33.7991 21.8883 33.7991 14.0977 33.6515 11.4961ZM30.2905 27.2813C29.7421 28.6594 28.6804 29.7211 27.2952 30.2766C25.221 31.0992 20.2991 30.9094 18.0069 30.9094C15.7147 30.9094 10.7858 31.0922 8.71865 30.2766C7.34053 29.7281 6.27881 28.6664 5.72334 27.2813C4.90068 25.207 5.09053 20.2852 5.09053 17.993C5.09053 15.7008 4.90772 10.7719 5.72334 8.70469C6.27178 7.32657 7.3335 6.26485 8.71865 5.70938C10.7929 4.88672 15.7147 5.07657 18.0069 5.07657C20.2991 5.07657 25.228 4.89376 27.2952 5.70938C28.6733 6.25782 29.7351 7.31954 30.2905 8.70469C31.1132 10.7789 30.9233 15.7008 30.9233 17.993C30.9233 20.2852 31.1132 25.2141 30.2905 27.2813Z" fill="#3E3E3E"/>
</svg>
