<svg width="36" height="36" viewBox="0 0 36 36" fill="none" xmlns="http://www.w3.org/2000/svg">
<g clip-path="url(#clip0_62_201)">
<path d="M35.9438 27.2109L34.309 34.2984C34.0793 35.3004 33.1987 36.0014 32.1673 36.0014C14.4281 36 0 21.5719 0 3.83203C0 2.80125 0.700945 1.91953 1.70297 1.69102L8.79047 0.0562519C9.82266 -0.182951 10.8773 0.35283 11.3063 1.33031L14.5772 8.95922C14.9595 9.85781 14.7016 10.9048 13.9458 11.5221L10.1602 14.5617C12.5494 19.4288 16.5066 23.3859 21.375 25.7766L24.4744 21.9938C25.0852 21.2358 26.1401 20.9735 27.0387 21.3627L34.6676 24.6329C35.5852 25.1156 36.1828 26.1844 35.9438 27.2109Z" fill="#3E3E3E"/>
</g>
<defs>
<clipPath id="clip0_62_201">
<rect width="36" height="36" fill="white"/>
</clipPath>
</defs>
</svg>
