<svg width="36" height="36" viewBox="0 0 36 36" fill="none" xmlns="http://www.w3.org/2000/svg">
<path d="M34.3532 9.75519C33.9607 8.27706 32.804 7.11294 31.3355 6.71788C28.6736 6 17.9998 6 17.9998 6C17.9998 6 7.32604 6 4.66411 6.71788C3.19554 7.113 2.03892 8.27706 1.64636 9.75519C0.933105 12.4344 0.933105 18.0243 0.933105 18.0243C0.933105 18.0243 0.933105 23.6141 1.64636 26.2933C2.03892 27.7714 3.19554 28.8871 4.66411 29.2821C7.32604 30 17.9998 30 17.9998 30C17.9998 30 28.6735 30 31.3355 29.2821C32.804 28.8871 33.9607 27.7714 34.3532 26.2933C35.0665 23.6141 35.0665 18.0243 35.0665 18.0243C35.0665 18.0243 35.0665 12.4344 34.3532 9.75519ZM14.5089 23.0994V12.9491L23.43 18.0244L14.5089 23.0994Z" fill="#3E3E3E"/>
</svg>
